<?xml version="1.0" encoding="UTF-8" standalone="no"?>
<!-- Created with Inkscape (http://www.inkscape.org/) -->

<svg
   width="297mm"
   height="210mm"
   viewBox="0 0 297 210"
   version="1.1"
   id="svg1"
   xml:space="preserve"
   xmlns="http://www.w3.org/2000/svg"
   xmlns:svg="http://www.w3.org/2000/svg"><defs
     id="defs1" /><g
     id="layer2"
     style="display:inline"><g
       id="g185"
       style="display:inline"
       transform="translate(94.397605,9.7500001)"><path
         d="M 95.871667,64.058622 A 21.876379,21.876379 0 0 0 73.995483,85.934806 21.876379,21.876379 0 0 0 95.871667,107.81151 21.876379,21.876379 0 0 0 117.74837,85.934806 21.876379,21.876379 0 0 0 95.871667,64.058622 Z m 0,8.117851 A 13.758333,13.758333 0 0 1 109.63,85.934806 13.758333,13.758333 0 0 1 95.871667,99.69314 13.758333,13.758333 0 0 1 82.113334,85.934806 13.758333,13.758333 0 0 1 95.871667,72.176473 Z"
         style="fill:#8d8d8d;stroke-width:0.841398"
         id="path3" /><path
         d="m 93.755574,114.31924 h 5.198422 l 1.960734,-7.09687 h -9.39021 z"
         id="path5"
         style="fill:#8d8d8d" /><path
         style="fill:#8d8d8d;fill-rule:nonzero;stroke:none;stroke-width:0.264583"
         d="m 93.755574,114.31924 c 1.185428,0 3.046658,0 5.198422,0 0.612033,-2.21525 1.286384,-4.65606 1.960734,-7.09687 -3.229552,0 -6.459104,0 -9.39021,0 0.923492,2.93758 1.722293,5.47853 2.231054,7.09687 z m 0,0 c -0.508761,-1.61834 -1.307562,-4.15929 -2.231054,-7.09687 2.931106,0 6.160658,0 9.39021,0 -0.67435,2.44081 -1.348701,4.88162 -1.960734,7.09687 -2.151764,0 -4.012994,0 -5.198422,0 z"
         id="path4" /><path
         d="m 93.755574,114.31924 h 5.198422 l 1.960734,-7.09687 h -9.39021 z"
         id="path64"
         style="fill:#8d8d8d"
         transform="rotate(36,95.871926,85.935066)" /><path
         style="fill:#8d8d8d;fill-rule:nonzero;stroke:none;stroke-width:0.264583"
         d="m 93.755574,114.31924 c 1.185428,0 3.046658,0 5.198422,0 0.612033,-2.21525 1.286384,-4.65606 1.960734,-7.09687 -3.229552,0 -6.459104,0 -9.39021,0 0.923492,2.93758 1.722293,5.47853 2.231054,7.09687 z m 0,0 c -0.508761,-1.61834 -1.307562,-4.15929 -2.231054,-7.09687 2.931106,0 6.160658,0 9.39021,0 -0.67435,2.44081 -1.348701,4.88162 -1.960734,7.09687 -2.151764,0 -4.012994,0 -5.198422,0 z"
         id="path65"
         transform="rotate(36,95.871926,85.935066)" /><path
         d="m 93.755574,114.31924 h 5.198422 l 1.960734,-7.09687 h -9.39021 z"
         id="path72"
         style="fill:#8d8d8d"
         transform="rotate(72,95.871926,85.935066)" /><path
         style="fill:#8d8d8d;fill-rule:nonzero;stroke:none;stroke-width:0.264583"
         d="m 93.755574,114.31924 c 1.185428,0 3.046658,0 5.198422,0 0.612033,-2.21525 1.286384,-4.65606 1.960734,-7.09687 -3.229552,0 -6.459104,0 -9.39021,0 0.923492,2.93758 1.722293,5.47853 2.231054,7.09687 z m 0,0 c -0.508761,-1.61834 -1.307562,-4.15929 -2.231054,-7.09687 2.931106,0 6.160658,0 9.39021,0 -0.67435,2.44081 -1.348701,4.88162 -1.960734,7.09687 -2.151764,0 -4.012994,0 -5.198422,0 z"
         id="path73"
         transform="rotate(72,95.871926,85.935066)" /><path
         d="m 93.755574,114.31924 h 5.198422 l 1.960734,-7.09687 h -9.39021 z"
         id="path76"
         style="fill:#8d8d8d"
         transform="rotate(108,95.871926,85.935066)" /><path
         style="fill:#8d8d8d;fill-rule:nonzero;stroke:none;stroke-width:0.264583"
         d="m 93.755574,114.31924 c 1.185428,0 3.046658,0 5.198422,0 0.612033,-2.21525 1.286384,-4.65606 1.960734,-7.09687 -3.229552,0 -6.459104,0 -9.39021,0 0.923492,2.93758 1.722293,5.47853 2.231054,7.09687 z m 0,0 c -0.508761,-1.61834 -1.307562,-4.15929 -2.231054,-7.09687 2.931106,0 6.160658,0 9.39021,0 -0.67435,2.44081 -1.348701,4.88162 -1.960734,7.09687 -2.151764,0 -4.012994,0 -5.198422,0 z"
         id="path77"
         transform="rotate(108,95.871926,85.935066)" /><path
         d="m 93.755574,114.31924 h 5.198422 l 1.960734,-7.09687 h -9.39021 z"
         id="path78"
         style="fill:#8d8d8d"
         transform="rotate(144,95.871926,85.935066)" /><path
         style="fill:#8d8d8d;fill-rule:nonzero;stroke:none;stroke-width:0.264583"
         d="m 93.755574,114.31924 c 1.185428,0 3.046658,0 5.198422,0 0.612033,-2.21525 1.286384,-4.65606 1.960734,-7.09687 -3.229552,0 -6.459104,0 -9.39021,0 0.923492,2.93758 1.722293,5.47853 2.231054,7.09687 z m 0,0 c -0.508761,-1.61834 -1.307562,-4.15929 -2.231054,-7.09687 2.931106,0 6.160658,0 9.39021,0 -0.67435,2.44081 -1.348701,4.88162 -1.960734,7.09687 -2.151764,0 -4.012994,0 -5.198422,0 z"
         id="path79"
         transform="rotate(144,95.871926,85.935066)" /><path
         d="m 93.755574,114.31924 h 5.198422 l 1.960734,-7.09687 h -9.39021 z"
         id="path80"
         style="fill:#8d8d8d"
         transform="rotate(180,95.871926,85.935066)" /><path
         style="fill:#8d8d8d;fill-rule:nonzero;stroke:none;stroke-width:0.264583"
         d="m 93.755574,114.31924 c 1.185428,0 3.046658,0 5.198422,0 0.612033,-2.21525 1.286384,-4.65606 1.960734,-7.09687 -3.229552,0 -6.459104,0 -9.39021,0 0.923492,2.93758 1.722293,5.47853 2.231054,7.09687 z m 0,0 c -0.508761,-1.61834 -1.307562,-4.15929 -2.231054,-7.09687 2.931106,0 6.160658,0 9.39021,0 -0.67435,2.44081 -1.348701,4.88162 -1.960734,7.09687 -2.151764,0 -4.012994,0 -5.198422,0 z"
         id="path81"
         transform="rotate(180,95.871926,85.935066)" /><path
         d="m 93.755574,114.31924 h 5.198422 l 1.960734,-7.09687 h -9.39021 z"
         id="path163"
         style="fill:#8d8d8d"
         transform="rotate(-144,95.871926,85.935066)" /><path
         style="fill:#8d8d8d;fill-rule:nonzero;stroke:none;stroke-width:0.264583"
         d="m 93.755574,114.31924 c 1.185428,0 3.046658,0 5.198422,0 0.612033,-2.21525 1.286384,-4.65606 1.960734,-7.09687 -3.229552,0 -6.459104,0 -9.39021,0 0.923492,2.93758 1.722293,5.47853 2.231054,7.09687 z m 0,0 c -0.508761,-1.61834 -1.307562,-4.15929 -2.231054,-7.09687 2.931106,0 6.160658,0 9.39021,0 -0.67435,2.44081 -1.348701,4.88162 -1.960734,7.09687 -2.151764,0 -4.012994,0 -5.198422,0 z"
         id="path164"
         transform="rotate(-144,95.871926,85.935066)" /><path
         d="m 93.755574,114.31924 h 5.198422 l 1.960734,-7.09687 h -9.39021 z"
         id="path165"
         style="fill:#8d8d8d"
         transform="rotate(-108,95.871926,85.935066)" /><path
         style="fill:#8d8d8d;fill-rule:nonzero;stroke:none;stroke-width:0.264583"
         d="m 93.755574,114.31924 c 1.185428,0 3.046658,0 5.198422,0 0.612033,-2.21525 1.286384,-4.65606 1.960734,-7.09687 -3.229552,0 -6.459104,0 -9.39021,0 0.923492,2.93758 1.722293,5.47853 2.231054,7.09687 z m 0,0 c -0.508761,-1.61834 -1.307562,-4.15929 -2.231054,-7.09687 2.931106,0 6.160658,0 9.39021,0 -0.67435,2.44081 -1.348701,4.88162 -1.960734,7.09687 -2.151764,0 -4.012994,0 -5.198422,0 z"
         id="path166"
         transform="rotate(-108,95.871926,85.935066)" /><path
         d="m 93.755574,114.31924 h 5.198422 l 1.960734,-7.09687 h -9.39021 z"
         id="path167"
         style="fill:#8d8d8d"
         transform="rotate(-72,95.871926,85.935066)" /><path
         style="fill:#8d8d8d;fill-rule:nonzero;stroke:none;stroke-width:0.264583"
         d="m 93.755574,114.31924 c 1.185428,0 3.046658,0 5.198422,0 0.612033,-2.21525 1.286384,-4.65606 1.960734,-7.09687 -3.229552,0 -6.459104,0 -9.39021,0 0.923492,2.93758 1.722293,5.47853 2.231054,7.09687 z m 0,0 c -0.508761,-1.61834 -1.307562,-4.15929 -2.231054,-7.09687 2.931106,0 6.160658,0 9.39021,0 -0.67435,2.44081 -1.348701,4.88162 -1.960734,7.09687 -2.151764,0 -4.012994,0 -5.198422,0 z"
         id="path168"
         transform="rotate(-72,95.871926,85.935066)" /><path
         d="m 93.755574,114.31924 h 5.198422 l 1.960734,-7.09687 h -9.39021 z"
         id="path169"
         style="fill:#8d8d8d"
         transform="rotate(-36,95.871925,85.935066)" /><path
         style="fill:#8d8d8d;fill-rule:nonzero;stroke:none;stroke-width:0.264583"
         d="m 93.755574,114.31924 c 1.185428,0 3.046658,0 5.198422,0 0.612033,-2.21525 1.286384,-4.65606 1.960734,-7.09687 -3.229552,0 -6.459104,0 -9.39021,0 0.923492,2.93758 1.722293,5.47853 2.231054,7.09687 z m 0,0 c -0.508761,-1.61834 -1.307562,-4.15929 -2.231054,-7.09687 2.931106,0 6.160658,0 9.39021,0 -0.67435,2.44081 -1.348701,4.88162 -1.960734,7.09687 -2.151764,0 -4.012994,0 -5.198422,0 z"
         id="path170"
         transform="rotate(-36,95.871925,85.935066)" /></g><g
       id="g209"
       style="display:inline;fill:#d2d2d2;fill-opacity:1"
       transform="matrix(0.50773886,0,0,0.50773886,171.54396,57.228055)"><path
         d="M 95.871667,64.058622 A 21.876379,21.876379 0 0 0 73.995483,85.934806 21.876379,21.876379 0 0 0 95.871667,107.81151 21.876379,21.876379 0 0 0 117.74837,85.934806 21.876379,21.876379 0 0 0 95.871667,64.058622 Z m 0,8.117851 A 13.758333,13.758333 0 0 1 109.63,85.934806 13.758333,13.758333 0 0 1 95.871667,99.69314 13.758333,13.758333 0 0 1 82.113334,85.934806 13.758333,13.758333 0 0 1 95.871667,72.176473 Z"
         style="fill:#d2d2d2;fill-opacity:1;stroke-width:0.841398"
         id="path189" /><path
         d="m 93.755574,114.31924 h 5.198422 l 1.960734,-7.09687 h -9.39021 z"
         id="path190"
         style="fill:#d2d2d2;fill-opacity:1" /><path
         style="fill:#d2d2d2;fill-opacity:1;fill-rule:nonzero;stroke:none;stroke-width:0.264583"
         d="m 93.755574,114.31924 c 1.185428,0 3.046658,0 5.198422,0 0.612033,-2.21525 1.286384,-4.65606 1.960734,-7.09687 -3.229552,0 -6.459104,0 -9.39021,0 0.923492,2.93758 1.722293,5.47853 2.231054,7.09687 z m 0,0 c -0.508761,-1.61834 -1.307562,-4.15929 -2.231054,-7.09687 2.931106,0 6.160658,0 9.39021,0 -0.67435,2.44081 -1.348701,4.88162 -1.960734,7.09687 -2.151764,0 -4.012994,0 -5.198422,0 z"
         id="path191" /><path
         d="m 93.755574,114.31924 h 5.198422 l 1.960734,-7.09687 h -9.39021 z"
         id="path192"
         style="fill:#d2d2d2;fill-opacity:1"
         transform="rotate(36,95.871926,85.935066)" /><path
         style="fill:#d2d2d2;fill-opacity:1;fill-rule:nonzero;stroke:none;stroke-width:0.264583"
         d="m 93.755574,114.31924 c 1.185428,0 3.046658,0 5.198422,0 0.612033,-2.21525 1.286384,-4.65606 1.960734,-7.09687 -3.229552,0 -6.459104,0 -9.39021,0 0.923492,2.93758 1.722293,5.47853 2.231054,7.09687 z m 0,0 c -0.508761,-1.61834 -1.307562,-4.15929 -2.231054,-7.09687 2.931106,0 6.160658,0 9.39021,0 -0.67435,2.44081 -1.348701,4.88162 -1.960734,7.09687 -2.151764,0 -4.012994,0 -5.198422,0 z"
         id="path193"
         transform="rotate(36,95.871926,85.935066)" /><path
         d="m 93.755574,114.31924 h 5.198422 l 1.960734,-7.09687 h -9.39021 z"
         id="path194"
         style="fill:#d2d2d2;fill-opacity:1"
         transform="rotate(72,95.871926,85.935066)" /><path
         style="fill:#d2d2d2;fill-opacity:1;fill-rule:nonzero;stroke:none;stroke-width:0.264583"
         d="m 93.755574,114.31924 c 1.185428,0 3.046658,0 5.198422,0 0.612033,-2.21525 1.286384,-4.65606 1.960734,-7.09687 -3.229552,0 -6.459104,0 -9.39021,0 0.923492,2.93758 1.722293,5.47853 2.231054,7.09687 z m 0,0 c -0.508761,-1.61834 -1.307562,-4.15929 -2.231054,-7.09687 2.931106,0 6.160658,0 9.39021,0 -0.67435,2.44081 -1.348701,4.88162 -1.960734,7.09687 -2.151764,0 -4.012994,0 -5.198422,0 z"
         id="path195"
         transform="rotate(72,95.871926,85.935066)" /><path
         d="m 93.755574,114.31924 h 5.198422 l 1.960734,-7.09687 h -9.39021 z"
         id="path196"
         style="fill:#d2d2d2;fill-opacity:1"
         transform="rotate(108,95.871926,85.935066)" /><path
         style="fill:#d2d2d2;fill-opacity:1;fill-rule:nonzero;stroke:none;stroke-width:0.264583"
         d="m 93.755574,114.31924 c 1.185428,0 3.046658,0 5.198422,0 0.612033,-2.21525 1.286384,-4.65606 1.960734,-7.09687 -3.229552,0 -6.459104,0 -9.39021,0 0.923492,2.93758 1.722293,5.47853 2.231054,7.09687 z m 0,0 c -0.508761,-1.61834 -1.307562,-4.15929 -2.231054,-7.09687 2.931106,0 6.160658,0 9.39021,0 -0.67435,2.44081 -1.348701,4.88162 -1.960734,7.09687 -2.151764,0 -4.012994,0 -5.198422,0 z"
         id="path197"
         transform="rotate(108,95.871926,85.935066)" /><path
         d="m 93.755574,114.31924 h 5.198422 l 1.960734,-7.09687 h -9.39021 z"
         id="path198"
         style="fill:#d2d2d2;fill-opacity:1"
         transform="rotate(144,95.871926,85.935066)" /><path
         style="fill:#d2d2d2;fill-opacity:1;fill-rule:nonzero;stroke:none;stroke-width:0.264583"
         d="m 93.755574,114.31924 c 1.185428,0 3.046658,0 5.198422,0 0.612033,-2.21525 1.286384,-4.65606 1.960734,-7.09687 -3.229552,0 -6.459104,0 -9.39021,0 0.923492,2.93758 1.722293,5.47853 2.231054,7.09687 z m 0,0 c -0.508761,-1.61834 -1.307562,-4.15929 -2.231054,-7.09687 2.931106,0 6.160658,0 9.39021,0 -0.67435,2.44081 -1.348701,4.88162 -1.960734,7.09687 -2.151764,0 -4.012994,0 -5.198422,0 z"
         id="path199"
         transform="rotate(144,95.871926,85.935066)" /><path
         d="m 93.755574,114.31924 h 5.198422 l 1.960734,-7.09687 h -9.39021 z"
         id="path200"
         style="fill:#d2d2d2;fill-opacity:1"
         transform="rotate(180,95.871926,85.935066)" /><path
         style="fill:#d2d2d2;fill-opacity:1;fill-rule:nonzero;stroke:none;stroke-width:0.264583"
         d="m 93.755574,114.31924 c 1.185428,0 3.046658,0 5.198422,0 0.612033,-2.21525 1.286384,-4.65606 1.960734,-7.09687 -3.229552,0 -6.459104,0 -9.39021,0 0.923492,2.93758 1.722293,5.47853 2.231054,7.09687 z m 0,0 c -0.508761,-1.61834 -1.307562,-4.15929 -2.231054,-7.09687 2.931106,0 6.160658,0 9.39021,0 -0.67435,2.44081 -1.348701,4.88162 -1.960734,7.09687 -2.151764,0 -4.012994,0 -5.198422,0 z"
         id="path201"
         transform="rotate(180,95.871926,85.935066)" /><path
         d="m 93.755574,114.31924 h 5.198422 l 1.960734,-7.09687 h -9.39021 z"
         id="path202"
         style="fill:#d2d2d2;fill-opacity:1"
         transform="rotate(-144,95.871926,85.935066)" /><path
         style="fill:#d2d2d2;fill-opacity:1;fill-rule:nonzero;stroke:none;stroke-width:0.264583"
         d="m 93.755574,114.31924 c 1.185428,0 3.046658,0 5.198422,0 0.612033,-2.21525 1.286384,-4.65606 1.960734,-7.09687 -3.229552,0 -6.459104,0 -9.39021,0 0.923492,2.93758 1.722293,5.47853 2.231054,7.09687 z m 0,0 c -0.508761,-1.61834 -1.307562,-4.15929 -2.231054,-7.09687 2.931106,0 6.160658,0 9.39021,0 -0.67435,2.44081 -1.348701,4.88162 -1.960734,7.09687 -2.151764,0 -4.012994,0 -5.198422,0 z"
         id="path203"
         transform="rotate(-144,95.871926,85.935066)" /><path
         d="m 93.755574,114.31924 h 5.198422 l 1.960734,-7.09687 h -9.39021 z"
         id="path204"
         style="fill:#d2d2d2;fill-opacity:1"
         transform="rotate(-108,95.871926,85.935066)" /><path
         style="fill:#d2d2d2;fill-opacity:1;fill-rule:nonzero;stroke:none;stroke-width:0.264583"
         d="m 93.755574,114.31924 c 1.185428,0 3.046658,0 5.198422,0 0.612033,-2.21525 1.286384,-4.65606 1.960734,-7.09687 -3.229552,0 -6.459104,0 -9.39021,0 0.923492,2.93758 1.722293,5.47853 2.231054,7.09687 z m 0,0 c -0.508761,-1.61834 -1.307562,-4.15929 -2.231054,-7.09687 2.931106,0 6.160658,0 9.39021,0 -0.67435,2.44081 -1.348701,4.88162 -1.960734,7.09687 -2.151764,0 -4.012994,0 -5.198422,0 z"
         id="path205"
         transform="rotate(-108,95.871926,85.935066)" /><path
         d="m 93.755574,114.31924 h 5.198422 l 1.960734,-7.09687 h -9.39021 z"
         id="path206"
         style="fill:#d2d2d2;fill-opacity:1"
         transform="rotate(-72,95.871926,85.935066)" /><path
         style="fill:#d2d2d2;fill-opacity:1;fill-rule:nonzero;stroke:none;stroke-width:0.264583"
         d="m 93.755574,114.31924 c 1.185428,0 3.046658,0 5.198422,0 0.612033,-2.21525 1.286384,-4.65606 1.960734,-7.09687 -3.229552,0 -6.459104,0 -9.39021,0 0.923492,2.93758 1.722293,5.47853 2.231054,7.09687 z m 0,0 c -0.508761,-1.61834 -1.307562,-4.15929 -2.231054,-7.09687 2.931106,0 6.160658,0 9.39021,0 -0.67435,2.44081 -1.348701,4.88162 -1.960734,7.09687 -2.151764,0 -4.012994,0 -5.198422,0 z"
         id="path207"
         transform="rotate(-72,95.871926,85.935066)" /><path
         d="m 93.755574,114.31924 h 5.198422 l 1.960734,-7.09687 h -9.39021 z"
         id="path208"
         style="fill:#d2d2d2;fill-opacity:1"
         transform="rotate(-36,95.871925,85.935066)" /><path
         style="fill:#d2d2d2;fill-opacity:1;fill-rule:nonzero;stroke:none;stroke-width:0.264583"
         d="m 93.755574,114.31924 c 1.185428,0 3.046658,0 5.198422,0 0.612033,-2.21525 1.286384,-4.65606 1.960734,-7.09687 -3.229552,0 -6.459104,0 -9.39021,0 0.923492,2.93758 1.722293,5.47853 2.231054,7.09687 z m 0,0 c -0.508761,-1.61834 -1.307562,-4.15929 -2.231054,-7.09687 2.931106,0 6.160658,0 9.39021,0 -0.67435,2.44081 -1.348701,4.88162 -1.960734,7.09687 -2.151764,0 -4.012994,0 -5.198422,0 z"
         id="path209"
         transform="rotate(-36,95.871925,85.935066)" /></g><path
       d="m 89.050687,116.63958 4.6736,-20.218396 h -7.9248 l -2.8448,12.293596 h -12.0396 l 2.8448,-12.293596 h -7.9248 l -2.8448,12.293596 h -11.7856 l 2.8448,-12.293596 h -7.975599 l -4.6736,20.218396 z m -32.3596,-31.749996 h -7.975599 l -1.778,7.7216 h 7.975599 z m 39.6748,0 h -7.9248 l -1.778,7.7216 h 7.9248 z m -19.9644,0 h -7.9248 l -1.778,7.7216 h 7.9248 z m 23.164766,7.7216 h 39.725597 l 1.778,-7.7724 h -39.7256 z m 18.389597,23.977596 4.6736,-20.167596 h -7.9756 l -4.6736,20.167596 z m 24.43476,-15.9004 -3.6576,15.9004 h 7.9248 l 1.8288,-7.9248 h 16.002 l -1.8288,7.9248 h 7.9248 l 1.8288,-7.9248 h 7.87399 l 2.8448,-12.242796 h -7.9756 l -1.016,4.267196 z M 185.7738,84.838784 h -39.72559 l -1.778,7.7724 h 39.72559 z"
       id="text228"
       style="font-size:50.8px;font-family:'Avenger Laser Italic';-inkscape-font-specification:'Avenger Laser Italic, ';fill:#000000;stroke-width:0.264583"
       aria-label="WTR" /><path
       d="m 185.32474,116.45281 h 4.21089 l -4.58427,-6.61711 1.90838,-1.61798 h -4.0242 l -1.8669,1.61798 z m 3.00778,-12.9853 -3.71306,3.19446 h 4.08643 l 3.81677,-3.19446 z m 2.57468,12.9853 h 4.21089 l -4.58427,-6.61711 1.90839,-1.61798 h -4.0242 l -1.8669,1.61798 z m 3.00778,-12.9853 -3.71305,3.19446 h 4.08643 l 3.81677,-3.19446 z"
       id="text230"
       style="font-size:20.7433px;font-family:'Avenger Laser Italic';-inkscape-font-specification:'Avenger Laser Italic, ';letter-spacing:-6.61458px;fill:#000000;stroke-width:0.264583"
       aria-label="&lt;&lt;" /><path
       d="m 214.333,108.53007 h -16.22126 l -0.74676,3.23595 h 12.98531 l -0.37338,1.61798 H 196.9916 l -0.74676,3.23596 h 16.22126 z m 1.12014,-4.87468 h -16.22126 l -0.72602,3.17373 h 16.22126 z m 1.74866,12.96457 1.90838,-8.23509 h -3.25669 l -1.90839,8.23509 z m -0.26966,-12.96457 -0.72602,3.17373 h 3.2567 l 0.72602,-3.17373 z m 18.90339,8.11063 0.78824,-3.38115 h -3.23595 l -0.0415,0.1452 h -12.9853 l -0.74676,3.23595 z m -1.12014,4.87468 0.74676,-3.23595 h -16.22126 l -0.74676,3.23595 z m 2.98703,-12.96456 h -16.22126 l -0.72601,3.15298 h 16.22126 z m 12.49369,8.08988 -1.12013,4.85394 h 3.23595 l 1.90838,-8.23509 h -3.23595 l -0.0415,0.1452 h -9.7286 l 0.0415,-0.1452 h -3.23595 l -0.78825,3.38115 z m -7.86171,-8.11063 h -3.23595 l -0.72602,3.17373 h 3.23596 z m 12.96457,0 h -3.23596 l -0.72601,3.17373 h 3.23595 z"
       id="text232"
       style="font-size:20.7433px;font-family:'Avenger Laser Italic';-inkscape-font-specification:'Avenger Laser Italic, ';letter-spacing:-0.595312px;display:inline;fill:#000000;stroke:none;stroke-width:0.264583"
       aria-label="5124" /><g
       id="g20"
       style="fill:#000000"><path
         d="m 198.6587,106.161 3.14812,0.40406 -0.63065,2.73056 -3.25531,0.0616 z"
         id="path20"
         style="fill:#000000" /><path
         style="fill:#000000;fill-rule:nonzero;stroke:none;stroke-width:0.264583"
         d="m 198.6587,106.161 c 0.71789,0.0921 1.84503,0.23681 3.14812,0.40406 -0.19685,0.85233 -0.41375,1.79145 -0.63065,2.73056 -1.11959,0.0212 -2.23918,0.0424 -3.25531,0.0616 0.30541,-1.323 0.56959,-2.46737 0.73784,-3.19622 z m 0,0 c -0.16825,0.72885 -0.43243,1.87322 -0.73784,3.19622 1.01613,-0.0192 2.13572,-0.0404 3.25531,-0.0616 0.2169,-0.93911 0.4338,-1.87823 0.63065,-2.73056 -1.30309,-0.16725 -2.43023,-0.31192 -3.14812,-0.40406 z"
         id="path18" /></g><g
       id="g22"
       style="fill:#000000;stroke:none"><path
         d="m 215.56927,109.61131 0.99986,-4.36906 h 3.2567 l -1.04989,4.58492 -3.23345,-0.10027"
         id="path22"
         style="fill:#000000;stroke:none" /><path
         style="fill:#000000;fill-rule:nonzero;stroke:none;stroke-width:0.264583"
         d="m 215.56927,109.61131 c 0.228,-0.9963 0.58599,-2.56059 0.99986,-4.36906 1.01656,0 2.13663,0 3.2567,0 -0.36109,1.57688 -0.72217,3.15376 -1.04989,4.58492 -1.33841,-0.0415 -2.49611,-0.0774 -3.23345,-0.10027 0.73734,0.0229 1.89504,0.0588 3.23345,0.10027 0.32772,-1.43116 0.6888,-3.00804 1.04989,-4.58492 -1.12007,0 -2.24014,0 -3.2567,0 -0.41387,1.80847 -0.77186,3.37276 -0.99986,4.36906 z"
         id="path21" /></g><g
       id="g25"
       style="fill:#000000;stroke:none"><path
         d="m 219.98764,110.14804 -0.90224,3.93048 3.25853,-0.0758 0.80538,-3.50847 z"
         id="path25"
         style="fill:#000000;stroke:none" /><path
         style="fill:#000000;fill-rule:nonzero;stroke:none;stroke-width:0.264583"
         d="m 219.98764,110.14804 c -0.20574,0.89629 -0.52878,2.30355 -0.90224,3.93048 1.01713,-0.0237 2.13783,-0.0497 3.25853,-0.0758 0.27699,-1.20666 0.55398,-2.41332 0.80538,-3.50847 -1.3087,-0.14331 -2.44069,-0.26726 -3.16167,-0.34621 z m 0,0 c 0.72098,0.079 1.85297,0.2029 3.16167,0.34621 -0.2514,1.09515 -0.52839,2.30181 -0.80538,3.50847 -1.1207,0.0261 -2.2414,0.0521 -3.25853,0.0758 0.37346,-1.62693 0.6965,-3.03419 0.90224,-3.93048 z"
         id="path24" /><path
         d="m 236.35734,109.52771 0.7301,-3.18077 -3.04075,-0.26733 -0.95317,3.33496 z"
         id="path28"
         style="fill:#000000;stroke:none" /><path
         style="fill:#000000;fill-rule:nonzero;stroke:none;stroke-width:0.264583"
         d="m 236.35734,109.52771 c 0.16649,-0.72533 0.42789,-1.86417 0.7301,-3.18077 -0.94915,-0.0834 -1.99495,-0.17539 -3.04075,-0.26733 -0.32782,1.14698 -0.65564,2.29397 -0.95317,3.33496 1.35098,0.0468 2.51955,0.0873 3.26382,0.11314 z m 0,0 c -0.74427,-0.0258 -1.91284,-0.0663 -3.26382,-0.11314 0.29753,-1.04099 0.62535,-2.18798 0.95317,-3.33496 1.0458,0.0919 2.0916,0.18388 3.04075,0.26733 -0.30221,1.3166 -0.56361,2.45544 -0.7301,3.18077 z"
         id="path27" /></g><g
       id="g31"
       style="display:inline;fill:#000000;stroke:none"><path
         d="m 241.25576,108.38487 0.40415,-1.78099 -3.1894,-0.20352 -0.54666,2.3961 3.33191,-0.41159"
         id="path31"
         style="fill:#000000;stroke:none" /><path
         style="fill:#000000;fill-rule:nonzero;stroke:none;stroke-width:0.264583"
         d="m 241.25576,108.38487 c 0.0922,-0.40613 0.23686,-1.04379 0.40415,-1.78099 -0.99555,-0.0635 -2.09248,-0.13352 -3.1894,-0.20352 -0.18801,0.82408 -0.37602,1.64817 -0.54666,2.3961 1.37917,-0.17037 2.57211,-0.31773 3.33191,-0.41159 -0.7598,0.0939 -1.95274,0.24122 -3.33191,0.41159 0.17064,-0.74793 0.35865,-1.57202 0.54666,-2.3961 1.09692,0.07 2.19385,0.13999 3.1894,0.20352 -0.16729,0.7372 -0.31199,1.37486 -0.40415,1.78099 z"
         id="path30" /><path
         d="m 250.98436,108.38487 0.47896,-2.10797 3.27575,-0.17398 -0.75665,3.3085 z"
         id="path33"
         style="fill:#000000;stroke:none" /><path
         style="fill:#000000;fill-rule:nonzero;stroke:none;stroke-width:0.264583"
         d="m 250.98436,108.38487 c 0.10922,-0.48069 0.28071,-1.23543 0.47896,-2.10797 1.02251,-0.0543 2.14913,-0.11414 3.27575,-0.17398 -0.26023,1.13788 -0.52047,2.27577 -0.75665,3.3085 -1.24098,-0.42492 -2.31439,-0.79246 -2.99806,-1.02655 z m 0,0 c 0.68367,0.23409 1.75708,0.60163 2.99806,1.02655 0.23618,-1.03273 0.49642,-2.17062 0.75665,-3.3085 -1.12662,0.0598 -2.25324,0.11967 -3.27575,0.17398 -0.19825,0.87254 -0.36974,1.62728 -0.47896,2.10797 z"
         id="path32" /></g><path
       d="m 40.396851,131.54408 v -4.21695 h 0.84339 v 3.37356 h 0.84339 v -2.53017 h 0.84339 v 2.53017 h 0.84339 v -3.37356 h 0.84339 v 4.21695 z m 10.552998,0 v -4.21695 h 4.21695 v 0.84339 h -3.37356 v 0.84339 h 1.68678 v 0.84339 h -1.68678 v 0.84339 h 3.37356 v 0.84339 z m 10.552997,0 v -0.84339 h 3.37356 v -0.84339 h -3.37356 v -2.53017 h 4.21695 v 0.84339 h -3.37356 v 0.84339 h 3.37356 v 2.53017 z m 10.552998,-3.37356 v -0.84339 h 4.21695 v 0.84339 h -1.68678 v 3.37356 h -0.84339 v -3.37356 z m 17.732433,0 v -0.84339 h 4.21695 v 0.84339 h -1.68678 v 3.37356 h -0.84339 v -3.37356 z m 10.553003,3.37356 v -4.21695 h 4.21695 v 4.21695 z m 0.84339,-0.84339 h 2.53017 v -2.53017 h -2.53017 z m 9.7096,0.84339 v -4.21695 h 4.21695 v 2.53017 h -1.68678 l 1.11649,1.11649 -0.56226,0.57029 -1.68678,-1.68678 h -0.55423 v 1.68678 z m 0.84339,-2.53017 h 2.53017 v -0.84339 h -2.53017 z m 9.70961,2.53017 v -4.21695 h 4.21695 v 2.53017 h -1.68678 l 1.11649,1.11649 -0.56226,0.57029 -1.68678,-1.68678 h -0.55423 v 1.68678 z m 0.84339,-2.53017 h 2.53017 v -0.84339 h -2.53017 z m 9.70961,2.53017 v -4.21695 h 4.21695 v 4.21695 h -0.84339 v -1.68678 h -2.53017 v 1.68678 z m 0.84339,-2.53017 h 2.53017 v -0.84339 h -2.53017 z m 9.70961,2.53017 v -4.21695 h 4.21695 v 4.21695 h -0.84339 v -3.37356 h -2.53017 v 3.37356 z m 10.55299,0 v -4.21695 h 4.21695 v 0.84339 h -3.37356 v 2.53017 h 3.37356 v 0.84339 z m 10.553,0 v -4.21695 h 4.21695 v 0.84339 h -3.37356 v 0.84339 h 1.68678 v 0.84339 h -1.68678 v 0.84339 h 3.37356 v 0.84339 z m 17.73243,0 v -4.21695 h 4.21695 v 2.53017 h -1.68678 l 1.11649,1.11649 -0.56226,0.57029 -1.68678,-1.68678 h -0.55423 v 1.68678 z m 0.84339,-2.53017 h 2.53017 v -0.84339 h -2.53017 z m 9.70962,2.53017 v -4.21695 h 4.21695 v 4.21695 z m 0.84339,-0.84339 h 2.53017 v -2.53017 h -2.53017 z m 9.70961,0.84339 v -4.21695 h 4.21695 v 4.21695 z m 0.84339,-0.84339 h 2.53017 v -0.84339 h -2.53017 z m 0,-1.68678 h 2.53017 v -0.84339 h -2.53017 z m 9.7096,2.53017 v -4.21695 h 4.21695 v 4.21695 z m 0.84339,-0.84339 h 2.53017 v -2.53017 h -2.53017 z m 9.7096,-2.53017 v -0.84339 h 4.21695 v 0.84339 h -1.68678 v 3.37356 h -0.84339 v -3.37356 z m 10.553,3.37356 v -4.21695 h 0.84339 v 4.21695 z m 7.17944,0 v -4.21695 h 4.21695 v 0.84339 h -3.37356 v 2.53017 h 3.37356 v 0.84339 z m 10.55299,0 v -0.84339 h 3.37356 v -0.84339 h -3.37356 v -2.53017 h 4.21695 v 0.84339 h -3.37356 v 0.84339 h 3.37356 v 2.53017 z"
       id="text33"
       style="font-size:8.22506px;font-family:'Imagine Font';-inkscape-font-specification:'Imagine Font';letter-spacing:5.50069px;fill:#000000;stroke-width:0.264583"
       aria-label="WEST TORRANCE ROBOTICS" /></g></svg>
